<mxfile host="Electron" modified="2024-02-24T14:11:13.888Z" agent="Mozilla/5.0 (Windows NT 10.0; Win64; x64) AppleWebKit/537.36 (KHTML, like Gecko) draw.io/23.1.5 Chrome/120.0.6099.109 Electron/28.1.0 Safari/537.36" etag="n_jq1E7J4ezABp8jLB51" version="23.1.5" type="device">
  <diagram name="Página-1" id="gThNiK-513yAlAKjVC2n">
    <mxGraphModel dx="1036" dy="1775" grid="1" gridSize="10" guides="1" tooltips="1" connect="1" arrows="1" fold="1" page="1" pageScale="1" pageWidth="827" pageHeight="1169" math="0" shadow="0">
      <root>
        <mxCell id="0" />
        <mxCell id="1" parent="0" />
        <mxCell id="nnC3-zHSUJ9alDx0-Pvo-7" value="" style="edgeStyle=orthogonalEdgeStyle;rounded=0;orthogonalLoop=1;jettySize=auto;html=1;" parent="1" source="nnC3-zHSUJ9alDx0-Pvo-5" target="nnC3-zHSUJ9alDx0-Pvo-6" edge="1">
          <mxGeometry relative="1" as="geometry" />
        </mxCell>
        <mxCell id="nnC3-zHSUJ9alDx0-Pvo-5" value="Cadastro usuario&lt;div&gt;&lt;br&gt;&lt;/div&gt;" style="rounded=0;whiteSpace=wrap;html=1;" parent="1" vertex="1">
          <mxGeometry x="80" y="20" width="120" height="50" as="geometry" />
        </mxCell>
        <mxCell id="nnC3-zHSUJ9alDx0-Pvo-9" value="" style="edgeStyle=orthogonalEdgeStyle;rounded=0;orthogonalLoop=1;jettySize=auto;html=1;" parent="1" source="nnC3-zHSUJ9alDx0-Pvo-6" target="nnC3-zHSUJ9alDx0-Pvo-8" edge="1">
          <mxGeometry relative="1" as="geometry" />
        </mxCell>
        <mxCell id="nnC3-zHSUJ9alDx0-Pvo-6" value="Login" style="whiteSpace=wrap;html=1;rounded=0;" parent="1" vertex="1">
          <mxGeometry x="294" y="15" width="120" height="60" as="geometry" />
        </mxCell>
        <mxCell id="nnC3-zHSUJ9alDx0-Pvo-13" value="" style="edgeStyle=orthogonalEdgeStyle;rounded=0;orthogonalLoop=1;jettySize=auto;html=1;" parent="1" source="nnC3-zHSUJ9alDx0-Pvo-8" target="nnC3-zHSUJ9alDx0-Pvo-12" edge="1">
          <mxGeometry relative="1" as="geometry" />
        </mxCell>
        <mxCell id="nnC3-zHSUJ9alDx0-Pvo-16" value="" style="edgeStyle=orthogonalEdgeStyle;rounded=0;orthogonalLoop=1;jettySize=auto;html=1;" parent="1" source="nnC3-zHSUJ9alDx0-Pvo-8" target="nnC3-zHSUJ9alDx0-Pvo-15" edge="1">
          <mxGeometry relative="1" as="geometry">
            <Array as="points">
              <mxPoint x="360" y="243" />
              <mxPoint x="250" y="243" />
            </Array>
          </mxGeometry>
        </mxCell>
        <mxCell id="nnC3-zHSUJ9alDx0-Pvo-17" style="edgeStyle=orthogonalEdgeStyle;rounded=0;orthogonalLoop=1;jettySize=auto;html=1;exitX=0.75;exitY=1;exitDx=0;exitDy=0;" parent="1" source="nnC3-zHSUJ9alDx0-Pvo-8" target="nnC3-zHSUJ9alDx0-Pvo-18" edge="1">
          <mxGeometry relative="1" as="geometry">
            <mxPoint x="370" y="290" as="targetPoint" />
          </mxGeometry>
        </mxCell>
        <mxCell id="nnC3-zHSUJ9alDx0-Pvo-19" style="edgeStyle=orthogonalEdgeStyle;rounded=0;orthogonalLoop=1;jettySize=auto;html=1;exitX=1;exitY=1;exitDx=0;exitDy=0;" parent="1" source="nnC3-zHSUJ9alDx0-Pvo-8" target="nnC3-zHSUJ9alDx0-Pvo-20" edge="1">
          <mxGeometry relative="1" as="geometry">
            <mxPoint x="550" y="260" as="targetPoint" />
          </mxGeometry>
        </mxCell>
        <mxCell id="nnC3-zHSUJ9alDx0-Pvo-21" style="edgeStyle=orthogonalEdgeStyle;rounded=0;orthogonalLoop=1;jettySize=auto;html=1;exitX=1;exitY=0.75;exitDx=0;exitDy=0;" parent="1" source="nnC3-zHSUJ9alDx0-Pvo-8" target="nnC3-zHSUJ9alDx0-Pvo-22" edge="1">
          <mxGeometry relative="1" as="geometry">
            <mxPoint x="750" y="260" as="targetPoint" />
          </mxGeometry>
        </mxCell>
        <mxCell id="nnC3-zHSUJ9alDx0-Pvo-8" value="Pagina Principal&lt;div&gt;&lt;br/&gt;&lt;/div&gt;" style="whiteSpace=wrap;html=1;rounded=0;" parent="1" vertex="1">
          <mxGeometry x="294" y="155" width="120" height="60" as="geometry" />
        </mxCell>
        <mxCell id="nnC3-zHSUJ9alDx0-Pvo-10" value="&lt;h1&gt;&lt;font style=&quot;font-size: 18px;&quot;&gt;projeto para cadastro e autenticação&lt;/font&gt;&lt;/h1&gt;" style="text;html=1;spacing=5;spacingTop=-20;whiteSpace=wrap;overflow=hidden;rounded=0;" parent="1" vertex="1">
          <mxGeometry x="470" width="220" height="90" as="geometry" />
        </mxCell>
        <mxCell id="nnC3-zHSUJ9alDx0-Pvo-11" value="&lt;h1 style=&quot;font-size: 19px;&quot;&gt;&lt;font style=&quot;font-size: 19px;&quot;&gt;Area logada&lt;/font&gt;&lt;/h1&gt;&lt;div style=&quot;font-size: 19px;&quot;&gt;&lt;br&gt;&lt;/div&gt;" style="text;html=1;spacing=5;spacingTop=-20;whiteSpace=wrap;overflow=hidden;rounded=0;" parent="1" vertex="1">
          <mxGeometry x="420" y="120" width="190" height="30" as="geometry" />
        </mxCell>
        <mxCell id="nnC3-zHSUJ9alDx0-Pvo-12" value="Perfil" style="whiteSpace=wrap;html=1;rounded=0;" parent="1" vertex="1">
          <mxGeometry x="30" y="290" width="120" height="60" as="geometry" />
        </mxCell>
        <mxCell id="nnC3-zHSUJ9alDx0-Pvo-15" value="Plano de estudos&lt;div&gt;&lt;br/&gt;&lt;/div&gt;" style="whiteSpace=wrap;html=1;rounded=0;" parent="1" vertex="1">
          <mxGeometry x="190" y="270" width="120" height="60" as="geometry" />
        </mxCell>
        <mxCell id="nnC3-zHSUJ9alDx0-Pvo-18" value="Metas" style="rounded=1;whiteSpace=wrap;html=1;" parent="1" vertex="1">
          <mxGeometry x="350" y="270" width="120" height="60" as="geometry" />
        </mxCell>
        <mxCell id="nnC3-zHSUJ9alDx0-Pvo-20" value="Progresso" style="rounded=1;whiteSpace=wrap;html=1;" parent="1" vertex="1">
          <mxGeometry x="510" y="260" width="120" height="60" as="geometry" />
        </mxCell>
        <mxCell id="nnC3-zHSUJ9alDx0-Pvo-22" value="Area de membros" style="rounded=0;whiteSpace=wrap;html=1;" parent="1" vertex="1">
          <mxGeometry x="680" y="260" width="120" height="60" as="geometry" />
        </mxCell>
      </root>
    </mxGraphModel>
  </diagram>
</mxfile>
